<svg xmlns="http://www.w3.org/2000/svg" viewBox="0 0 884 841.9" enable-background="new 0 0 884 841.9"><g fill="#fff"><path d="m630.5 691.3c-88 0-195.8-32.4-295.6-89-131.3-74.3-227.4-177.4-250.8-269-10.4-40.4-6-77.6 12.5-107.6 14.7-23.7 37.1-41.7 66.9-53.6 26.5-10.6 58.3-16 94.3-16 88 0 195.8 32.4 295.6 89 131.2 74.3 227.3 177.4 250.8 269 10.4 40.4 6 77.6-12.5 107.6-14.7 23.7-37.1 41.7-66.9 53.6-26.6 10.6-58.3 16-94.3 16m-372.8-479.5c-56.2 0-96.6 15.3-113.8 43.2-10.5 17-12.5 38.7-5.9 64.5 19.5 76.3 107.6 168.3 224.3 234.4 91.7 52 189.5 81.8 268.2 81.8 56.2 0 96.6-15.3 113.8-43.2 10.5-17 12.5-38.7 5.9-64.5-19.5-76.3-107.6-168.3-224.3-234.4-91.8-52-189.5-81.8-268.2-81.8"/><path d="m255.1 709c-61.6 0-108.8-19.2-136.6-55.4-21.6-28.2-29.7-65.1-23.3-106.6 14.3-93.3 99.4-204.7 222-290.7 52.3-36.7 109-66.8 163.9-87.2 54.1-20 106.7-30.6 151.9-30.6 61.6 0 108.8 19.2 136.6 55.4 21.6 28.2 29.7 65.1 23.3 106.7-14.3 93.3-99.4 204.7-222 290.7-52.3 36.7-109 66.8-163.9 87.2-54.1 19.9-106.7 30.5-151.9 30.5m378-514.9c-81.6 0-187.7 40.3-283.8 107.7-108.9 76.4-187 176-199 253.6-4.1 26.6.1 48.2 12.5 64.3 11.8 15.3 37.3 33.6 92.4 33.6 81.6 0 187.7-40.3 283.8-107.7 108.9-76.4 187.1-176 199-253.6 4.1-26.6-.1-48.2-12.5-64.3-11.8-15.3-37.3-33.6-92.4-33.6"/><path d="m444.1 811.6c-59.7 0-114.3-42.9-153.7-120.7-36.3-71.8-56.4-166.7-56.4-267.2 0-100.5 20-195.4 56.4-267.2 39.4-77.9 94-120.7 153.7-120.7 59.7 0 114.3 42.9 153.7 120.7 36.3 71.8 56.4 166.7 56.4 267.2 0 100.5-20 195.4-56.4 267.2-39.4 77.8-94 120.7-153.7 120.7m0-720.2c-17.9 0-35.7 7.3-53.1 21.8-18.5 15.5-36.1 39.1-50.9 68.4-32.5 64.2-50.4 150.2-50.4 242.1 0 91.9 17.9 177.9 50.4 242.1 14.8 29.3 32.4 52.9 50.9 68.4 17.3 14.5 35.2 21.8 53.1 21.8s35.7-7.3 53.1-21.8c18.5-15.5 36.1-39.1 50.9-68.4 32.5-64.2 50.4-150.2 50.4-242.1 0-91.9-17.9-177.9-50.4-242.1-14.8-29.3-32.4-52.9-50.9-68.4-17.4-14.4-35.2-21.8-53.1-21.8"/><path d="m528.7 423.7c0 47.7-38.7 86.4-86.4 86.4-47.7 0-86.4-38.7-86.4-86.4 0-47.7 38.7-86.4 86.4-86.4 47.7 0 86.4 38.7 86.4 86.4"/></g></svg>