<svg xmlns="http://www.w3.org/2000/svg" viewBox="0 0 884 841.9" enable-background="new 0 0 884 841.9"><g fill="#fff"><path d="m153.5 382.4c22.4 5.2 162.8 28.4 162.8 28.4l106.6-107c0 0-182.2 12.7-188.2 13.4-6 .7-46.7 6.9-67.3 26.6-19.4 18.5-21.4 21.3-21.4 21.3s-11.9 12.8 7.5 17.3"/><path d="m852.9 77.7c0 0-11.6-13.9-52.9-14.8-81-4.6-150.2 63.4-150.2 63.4l-428.2 439c-23.4 24.6-41.7 17.8-41.7 17.8s-95.3-25.3-97.5-25.8c-2.2-.5-27.1-9.4-45.2 3.7-28.5 20.5-6.2 39-6.2 39s96.1 96 116.6 113.6c20.5 17.6 72.3 39.1 174.2-50.5 62.5-50.5 127.3-110.4 189.3-172l58.3 294.5c0 0 2.4 14.8 9.1 16.6 10.3 2.9 28.5-24.8 28.5-24.8s24.2-32.8 29.4-96.3c5.2-63.4 15.2-283.9 17.6-339.5 113-123.9 195.6-227.4 201-239.9 9.1-15.5-2.1-24-2.1-24"/></g></svg>