<svg xmlns="http://www.w3.org/2000/svg" viewBox="0 0 884 841.9" enable-background="new 0 0 884 841.9"><g fill="#fff"><path d="m567.5 262.6c-155.1 0-280.8 125.7-280.8 280.8 0 155.1 125.7 280.8 280.8 280.8 155.1 0 280.8-125.7 280.8-280.8 0-155.1-125.7-280.8-280.8-280.8m-22 221.9c-2.3.8-4.5 1.7-6.7 2.8l-90.4-90.4c27.1-22.1 60.5-36.8 97.1-41v128.6m44 125.1c2.3-.8 4.5-1.7 6.7-2.8l86.3 86.3c-26.4 20.3-58.3 33.8-93 37.8v-121.3m6.7-122.4c-2.2-1-4.4-2-6.7-2.8v-128.6c36.6 4.2 69.9 18.9 97.1 41l-90.4 90.4m-88.5 31.2c-1 2.2-2 4.4-2.8 6.7h-125.4c3.5-36.2 17.2-69.4 38.2-96.7l90 90m-2.8 50.7c.8 2.3 1.7 4.5 2.8 6.7l-86.8 86.8c-21.3-26.2-35.8-58.3-40.5-93.4h124.5zm33.9 37.8c2.2 1 4.4 2 6.7 2.8v121.3c-34.8-4-66.6-17.5-93-37.8l86.3-86.3m88.5-31.1c1-2.2 2-4.4 2.8-6.7h124.5c-4.8 35.1-19.2 67.2-40.5 93.4l-86.8-86.7m2.8-50.8c-.8-2.3-1.7-4.5-2.8-6.7l90-90c21 27.3 34.7 60.5 38.2 96.7h-125.4"/><path d="m561.8 232.8c58.9 0 113.9 16.9 160.4 46.1v-44.6l-348.8-213.6-348.8 213.6v67.4l46.3-.2v283.8h193.2c-2.8-16.5-4.2-33.4-4.2-50.6 0-166.8 135.1-301.9 301.9-301.9"/></g></svg>