<svg xmlns="http://www.w3.org/2000/svg" viewBox="0 0 884 841.9" enable-background="new 0 0 884 841.9"><g fill="#fff"><path d="m688.5 608.1c3.9-19.8 22.8-27.6 48.7-25s45.2-21.4 33.2-43.8c-10.6-17.8-7.7-17.3-7.7-17.3 7.6-15.2 20.5-17.6 16.8-22.6-2.6-3.5-1.9-2.3-8.7-8.7 11.7-4.9 11.1-8.4 11.1-8.4.7-10.2-7.8-34.1-7.8-34.1 8.5-4.3 30.6 1.5 30.6 1.5 22.4 0 18-23-2.6-58.7-18-37.8-25.2-42.6-31.9-52.4-6.7-9.8-7.8-12.4-6.7-18.5 16.9-36.7 11.7-41.5 2.6-63-9.1-21.5-4.6-39.3-4.6-39.3 27.6-50.6-15.9-81.7-54.7-120.6-38.9-38.9-40.8-17.8-71.5-29.1-16.5-6.1-34.7-1.6-48 3.9 17.5 19 31.3 38.5 29.9 61.8-.8 12.8-6 24.9-16 36.5 7.2 12.9 14.9 32.2 16.4 57.4v.8.8c-.1 10 3.6 18.6 7.2 26.9 2.3 5.4 4.5 10.4 5.7 15.9 1.7 6.7 3.7 23.6-8.7 45.6 0 0 0 .1-.1.1l1 1.1c2.1 2.5 21 25.2 28.6 57.5 1.9 7.9 5.9 15.3 9.8 22.5 3.9 7 7.8 14.3 9.8 22.3 3.9 15.9-1.9 27.4-7.4 34.2-8.8 10.8-18.8 14.1-26.5 14.7-.1 2.2-.4 4.2-.8 6 1.2 2.6 2.2 5.5 2.8 8.7 1.7 9.5-.7 19.2-6.8 27.3-.1.2-.3.4-.4.5 1 1.4 2 2.9 2.9 4.5 10.1 17.1 10.2 36.6.1 54.8-8.1 14.7-23.2 32.3-48.8 32.3-4.9 0-8.9-.6-11.9-1.1-.7-.1-1.7-.3-2-.3 0 0-.3 0-.9 0-9.6 0-28.4 3.4-37.3 9.5-3.5 2.4-13.7 9.4-9.3 44 2.9 2.6 8.8 6.9 13.3 10.2 22.3 16.2 57.4 41.8 75.6 88.6 52-18.5 99.6-45.8 141.2-80.1-34.6-39.3-66.2-66.9-66.2-66.9"/><path d="m502.4 664.6c-5.9-38.4 2-59.5 18.5-70.8 15.1-10.3 39.7-13.6 50.3-13.6 1 0 1.9 0 2.7.1 3.1.2 7.3 1.3 12.2 1.3 8.6 0 19.2-3.3 28.7-20.4 14.8-26.7-10.6-43.9-10.6-43.9s1.1-7.2 9.8-18.7c8.7-11.5-6.1-21-6.1-21 3.3-2.4 9.8-5.6 4.1-14.3-5.6-8.7-8.3-19.4-6.1-19.9 1.8-.4 3.5-.6 5.2-.6 8.7 0 16 4.8 23 4.8 4 0 7.8-1.5 11.7-6.4 12.2-15-10.2-31.5-16.7-59.3-6.5-27.8-23.7-47.8-23.7-47.8s-13.7-9.6-3.5-27.6c10.2-18 6.3-29.1 6.3-29.1-1.7-9.8-13.7-25.9-13.5-48.2-2.4-40-23.5-61.7-23.5-61.7 38-30.6 23.8-53.9-4-83.3-1.8-1.9-3.6-3.8-5.5-5.8-9.2-9.5-14.1-12.2-17.7-12.2-4.6 0-7.2 4.4-14.4 4.4-6.2 0-15.8-3.2-33-15.2-12.4-8.6-23.7-12-33.7-12-32.8 0-51.9 35.4-51.9 35.4-7.6-.4-15-.6-22.2-.6-156.3 0-192.9 91.4-192.9 91.4-33.5 23.9-36.5 92.5-30.4 124.3 6.1 31.7-15.2 57.6-47.4 135.6-42.6 103.4 58.2 125.6 58.2 125.6-11.7 33.5-14.1 54.1-14.1 54.1-14.2 11.1-27.5 24.6-39.8 39.3 84.9 83.1 201.9 134.5 331.1 134.5 48 0 94.4-7.1 138-20.3-24.9-62.3-85.1-81.3-89.1-98.1"/></g></svg>