<svg xmlns="http://www.w3.org/2000/svg" viewBox="0 0 884 841.9" enable-background="new 0 0 884 841.9"><g fill="#fff"><g fill-rule="evenodd"><path d="m866 571.8c0 22.2 0 44.4 0 66.7-285.1-122.7-570.2 122.7-855.3 0 0-22.2 0-44.4 0-66.7 285.1 122.7 570.2-122.6 855.3 0"/><path d="m866 678.8c0 22.2 0 44.4 0 66.7-285.1-122.7-570.2 122.7-855.3 0 0-22.2 0-44.4 0-66.7 285.1 122.7 570.2-122.6 855.3 0"/></g><path d="m226.1 561.5h-58.2c19.4 1 38.8.9 58.2 0"/><path d="m226.1 561.5c72.3-3.5 144.6-19 216.9-34.6v-45c0 0 .1 0 .1 0v-229.7c0-85.6 69.7-155.2 155.2-155.2 85.6 0 155.2 69.6 155.2 155.2 0 18.4 14.9 33.3 33.3 33.3 18.4 0 33.3-14.9 33.3-33.3 0-122.3-99.5-221.8-221.8-221.8-118.5 0-215.3 93.6-221.1 210.7h-221.8c5.7-80.4 72.8-144.1 154.7-144.1 19.5 0 38.1 3.7 55.3 10.3 17.3-32.5 43.3-53.3 44.2-53-30-15.2-63.7-23.9-99.5-23.9-122.3 0-221.8 99.5-221.8 221.8v229.6c0 0 0 0 0 0v68.8c26.5 6.1 53 9.5 79.5 10.9h58.3m150.2-66.7h-221.3v-54.2h221.3v54.2m-221.5-187.2h221.5v66.5h-221.5v-66.5"/></g></svg>