<svg xmlns="http://www.w3.org/2000/svg" viewBox="0 0 884 841.9" enable-background="new 0 0 884 841.9"><path fill="#fff" d="m170 136.6v429.9c0 0-1.6 20.8 31.3 41 37.3 22.4 328.6 204.1 328.6 204.1s21.4 15.3 37.4 6c16-9.3 15.5-24 15.6-29.2.2-5.2 0-441.6 0-441.6s2-25.6-26.3-37.3l-326.2-182.4c0 0 1.7-14.9 40-35s60.8-11.4 72.5-5.7c11.7 5.7 334 179.1 334 179.1v445.5c0 0-.4 27.6 39.7 27.8 32.3-.4 32.3-22.8 32.3-26.8s0-464.4 0-464.4 2.6-21.8-31.8-37.5c-31.7-14.4-359.6-186.5-359.6-186.5s-34-15.6-76.2 4.4c-38.8 18.4-111 56.6-111.3 108.6"/></svg>