<svg xmlns="http://www.w3.org/2000/svg" viewBox="0 0 884 841.9" enable-background="new 0 0 884 841.9"><path fill="#fff" d="m614.1 438.8c-37.8 0-73 11.3-102.5 30.6l-38.9-48.9 94.1-78.1-23-27.8-93.5 77.6-34.7-43.7c35.4-34 57.4-81.8 57.4-134.7 0-103.2-83.6-186.8-186.8-186.8-103.2 0-186.8 83.6-186.8 186.8s83.6 186.8 186.8 186.8c37.3 0 72-10.9 101.1-29.7l35.3 44.4-88.6 73.4 23 27.8 88-73 38.5 48.5c-34.7 33.9-56.2 81.2-56.2 133.5 0 103.2 83.6 186.8 186.8 186.8 103.2 0 186.8-83.6 186.8-186.8 0-103.1-83.6-186.7-186.8-186.7m-224.4-122.9l-72.3-91 113.8-22c.3 3.6.4 7.2.4 10.9 0 39.8-16 75.8-41.9 102.1m34.4-148.4l-112 21.7 40.5-104.9c33.4 17.3 59.4 47.1 71.5 83.2m-105.5-95.5l-40.1 103.9-68.4-86.1c22.1-13.6 48.2-21.5 76.1-21.5 11.1.1 22 1.3 32.4 3.7m-136.6 40.5l70.2 88.4-111.1 21.5c-.2-2.8-.3-5.7-.3-8.5 0-39.5 15.7-75.3 41.2-101.4m-34.4 145.3l107.3-20.8-40 103.5c-31.7-17.9-56.1-47.3-67.3-82.7m138.6 101.4c-13.1 0-25.8-1.7-37.9-5l41.1-106.5 71.9 90.5c-21.9 13.3-47.6 21-75.1 21m465.3 218.7l-106 20.5 38.7-100.2c31.3 17.2 55.5 45.5 67.3 79.7m-137.4-97.7c12.6 0 24.9 1.6 36.6 4.6l-41.5 107.4-71.6-90.2c22.2-13.9 48.4-21.8 76.5-21.8m-104.6 44.4l69 86.8-109.5 21.2c-.1-2.3-.2-4.7-.2-7-.1-39.3 15.5-74.8 40.7-101m-34.4 143.6l113.3-21.9-41.8 108.1c-34-17.9-60.1-48.9-71.5-86.2m105.4 98.8l39.8-103 68.6 86.3c-21.8 13.1-47.4 20.6-74.7 20.6-11.7 0-22.9-1.3-33.7-3.9m136.7-38.9l-73.5-92.5 115.3-22.4c.3 4.1.5 8.2.5 12.4 0 40-16.1 76.2-42.3 102.5"/></svg>