<?xml version="1.0" encoding="utf-8"?>
<!-- Generator: Adobe Illustrator 18.1.0, SVG Export Plug-In . SVG Version: 6.00 Build 0)  -->
<svg version="1.1" id="Ebene_1" xmlns="http://www.w3.org/2000/svg" xmlns:xlink="http://www.w3.org/1999/xlink" x="0px" y="0px"
	 viewBox="0 0 884 841.9" enable-background="new 0 0 884 841.9" xml:space="preserve">
<g>
	<path fill="#FFFFFF" d="M454.9,222.6C299,222.6,172.6,349,172.6,504.9S299,787.2,454.9,787.2s282.3-126.4,282.3-282.3
		S610.8,222.6,454.9,222.6z M454.9,724.7c-121.4,0-219.8-98.4-219.8-219.8s98.4-219.8,219.8-219.8c121.4,0,219.8,98.4,219.8,219.8
		S576.3,724.7,454.9,724.7z"/>
</g>
<g>
	<circle fill="#FFFFFF" cx="454.9" cy="337.1" r="21.9"/>
	<circle fill="#FFFFFF" cx="454.9" cy="672.7" r="21.9"/>
</g>
<g>
	<circle fill="#FFFFFF" cx="287.1" cy="504.9" r="21.9"/>
	<circle fill="#FFFFFF" cx="622.7" cy="504.9" r="21.9"/>
</g>
<g>
	<path fill="#FFFFFF" d="M469.4,536c-2.7,0-5.4-1-7.5-3.1L333.5,404.4c-4.1-4.1-4.1-10.8,0-15c4.1-4.1,10.8-4.1,15,0l128.5,128.5
		c4.1,4.1,4.1,10.8,0,15C474.9,534.9,472.1,536,469.4,536z"/>
</g>
<g>
	<path fill="#FFFFFF" d="M440.7,537.5c-2.7,0-5.4-1-7.5-3.1c-4.1-4.1-4.1-10.8,0-15l86.2-86.2c4.1-4.1,10.8-4.1,15,0
		c4.1,4.1,4.1,10.8,0,15l-86.2,86.2C446.1,536.4,443.4,537.5,440.7,537.5z"/>
</g>
<path fill="#FFFFFF" d="M501.3,182.2H421c-6.6,0-12-5.4-12-12v-31.9c0-6.6,5.4-12,12-12h80.3c6.6,0,12,5.4,12,12v31.9
	C513.3,176.8,507.9,182.2,501.3,182.2z"/>
<rect x="433.2" y="156.5" fill="#FFFFFF" width="54.4" height="89.2"/>
<g>
	<path fill="#FFFFFF" d="M460.9,222c-50.5,0-91.6-41.1-91.6-91.6c0-50.5,41.1-91.6,91.6-91.6c50.5,0,91.6,41.1,91.6,91.6
		C552.5,180.8,511.4,222,460.9,222z M460.9,54.7c-41.7,0-75.6,33.9-75.6,75.6s33.9,75.6,75.6,75.6s75.6-33.9,75.6-75.6
		S502.6,54.7,460.9,54.7z"/>
</g>
</svg>
