<svg xmlns="http://www.w3.org/2000/svg" viewBox="0 0 884 841.9" enable-background="new 0 0 884 841.9"><g fill="#fff"><path d="m811.5 424.7c-.1-.3-.1-.6-.2-.9-38.2-192.6-257.8-222.4-257.8-222.4s3.7 150.7-155.4 161-219.6-122.8-219.6-122.8c-108.9 63.3-107 179.6-107 179.6l.7 5.1c-24.2 6.4-42.2 28.5-42.2 54.7v14.3c0 31.2 25.5 56.7 56.7 56.7h39.9c-.4-3.5-.5-7-.5-10.6 0-56.8 46.2-102.9 102.9-102.9s102.9 46.2 102.9 102.9c0 3.6-.2 7.1-.5 10.6h219c-.4-3.5-.5-7-.5-10.6 0-56.8 46.2-102.9 102.9-102.9 56.8 0 102.9 46.2 102.9 102.9 0 3.6-.2 7.1-.5 10.6h40.3c31.2 0 56.7-25.5 56.7-56.7v-14.3c-.2-25.6-17.4-47.3-40.7-54.3"/><path d="m228.9 619.3c40.5 0 74-30.3 79.2-69.3h-158.4c5.2 39 38.7 69.3 79.2 69.3"/><path d="m228.9 459.5c-44.1 0-79.9 35.9-79.9 79.9 0 3.6.3 7.1.7 10.6h158.4c.5-3.5.7-7 .7-10.6.1-44.1-35.8-79.9-79.9-79.9"/><path d="m652.7 619.3c40.5 0 74-30.3 79.2-69.3h-158.4c5.2 39 38.7 69.3 79.2 69.3"/><path d="m652.7 459.5c-44.1 0-79.9 35.9-79.9 79.9 0 3.6.3 7.1.7 10.6h158.4c.5-3.5.7-7 .7-10.6 0-44.1-35.9-79.9-79.9-79.9"/><path d="m506 292.9l-2.3 2.3c-6 6.1-17.2 5-24.7-2.5l-7.8-7.7c-7.6-7.5-8.8-18.6-2.8-24.7l2.3-2.3c6-6.1 17.2-5 24.7 2.5l7.8 7.7c7.6 7.5 8.8 18.6 2.8 24.7"/><path d="m532.5 214.2l-106.7 111.8c-4.6 4.9-12.7 4.7-18-.3l-2.4-2.3c-5.3-5-5.8-13.1-1.1-17.9l106.7-111.8c4.6-4.9 12.7-4.7 18 .3l2.4 2.3c5.2 5 5.7 13.1 1.1 17.9"/></g></svg>