<svg xmlns="http://www.w3.org/2000/svg" viewBox="0 0 884 841.9" enable-background="new 0 0 884 841.9"><g fill="#fff"><path d="m317.4 562.4c0-80.4 72.7-145.8 162.2-145.8 19.3 0 38 3 55.9 8.9 18.5-18.9 42.5-32.5 69-39.5-23.6-47.7-73.1-79.4-127.6-79.4-11.6 0-23.2 1.4-34.4 4.2-8.3 2-16.9-1.2-21.8-8.3-29.4-42.7-77.9-68.2-129.7-68.2-39.4 0-77 14.6-106.1 41.2-28.9 26.4-46.8 62.2-50.5 101-.7 7.2-5.1 13.4-11.6 16.5-1.9.9-3.8 1.9-5.6 2.9-1.7.9-3.5 1.6-5.4 2.1-26.5 5.9-50.5 20.8-67.7 41.9-17.7 21.7-27 48-27 76 0 66.6 54.5 120.8 121.5 120.8h145.9c4-24.9 15.4-48.3 33.1-67.8-.1-2.3-.2-4.4-.2-6.5"/><path d="m751.8 556.8c-10.6-3.8-16.1-15.6-12.3-26.2 3.1-8.7 4.7-17.8 4.7-27 0-38.8-28.3-72-68-85.2-11.7-3.9-24.4-6-37.6-6-6.9 0-13.8.6-20.4 1.7-27.3 4.6-51.6 18.4-67.5 38.9-5.7 7.4-15.7 9.9-24.3 6.3-16.8-7.2-34.9-10.9-53.8-10.9-66.9 0-121.3 47.1-121.3 104.9 0 3.7.2 7.5.7 11.3.8 6.4-1.5 12.8-6.1 17.3-13.5 13-22.7 28.7-26.8 45.5-1.6 6.6-2.5 13.4-2.5 20.3 0 7.1.9 14 2.5 20.7 11 44.4 56.8 77.9 111.4 77.9h277.2c62.9 0 114-44.2 114-98.5.2-39.9-27.4-75.5-69.9-91"/><path d="m705.9 328.8c6.3 24.7 3.2 50.4-8.5 72.6-20.2-8.4-41.8-12.9-63.7-13.2-20-82.4-103-101.7-103-101.7 13-13.5 32.9-26.3 51.5-31 54.3-13.9 109.8 19 123.7 73.3"/><path d="m568.6 202.2c-10.9 2.8-22.1-3.8-24.9-14.7l-14.3-55.8c-2.8-10.9 3.8-22.1 14.7-24.9 10.9-2.8 22.1 3.8 24.9 14.7l14.3 55.8c2.8 11-3.8 22.1-14.7 24.9"/><path d="m674.8 188.9c-2 7.3-7.8 12.6-14.6 14.3-3.4.9-7 .9-10.6-.1-10.9-3-17.2-14.3-14.2-25.2l15.5-55.4c3-10.9 14.3-17.2 25.2-14.2 10.9 3 17.2 14.3 14.2 25.2l-15.5 55.4"/><path d="m789.3 204.4l-41.2 40.2c-2.7 2.6-5.8 4.3-9.2 5.2-6.8 1.8-14.4-.1-19.7-5.5-7.9-8.1-7.8-21 .3-28.9l41.2-40.2c8.1-7.9 21-7.8 28.9.3 7.9 8.1 7.8 21-.3 28.9"/><path d="m839.5 315.4l-55.8 14.3c-10.9 2.8-22.1-3.8-24.9-14.7-2.8-10.9 3.8-22.1 14.7-24.9l55.8-14.3c10.9-2.8 22.1 3.8 24.9 14.7 2.9 10.9-3.7 22.1-14.7 24.9"/><path d="m758 395.9c3-10.9 14.3-17.2 25.2-14.2l55.4 15.5c10.9 3 17.2 14.3 14.2 25.2-2 7.3-7.8 12.6-14.6 14.3-3.4.9-7 .9-10.6-.1l-55.4-15.5c-10.9-3.1-17.3-14.3-14.2-25.2"/><path d="m498 241.9c-2.7 2.6-5.8 4.3-9.2 5.2-6.8 1.8-14.4-.1-19.7-5.5l-40.2-41.2c-7.9-8.1-7.8-21 .3-28.9 8.1-7.9 21-7.8 28.9.3l40.2 41.2c8 8 7.8 21-.3 28.9"/></g></svg>