<svg xmlns="http://www.w3.org/2000/svg" viewBox="0 0 884 841.9" enable-background="new 0 0 884 841.9"><g fill="#fff"><path d="m279 277.4c15.5 6.5 31.4 14.9 47.8 25.3 44.2 28 93.6 71.4 151.2 132.6 24.9 26.5 50.2 50.4 75.3 72.1 58.4-58 103.1-83.3 146.1-83.3.5 0 1 0 1.5 0 47.6.7 87 32.6 132.2 80.6 12.1-16.3 23.2-33.5 33.1-51.3-24-25.9-47.8-53.9-71.5-84.1-243.9-312.4-356.4-285-515.7-91.9"/><path d="m451.5 460.2c-79.1-84.1-142-133.5-196.3-153.1-19.1-6.9-37.1-10.1-54.4-9.9-61 .8-117.2 45.3-182.3 113.5 18.7 43.2 43.6 83.1 73.7 118.5 56.6 66.8 131.3 117.5 216.6 144.8 7.7-2.6 15.9-5.5 24.4-8.9 50.4-19.9 124.6-58.7 194.7-131.5-26.6-23-52.1-47.5-76.4-73.4"/><path d="m700.4 460.5c-32-.5-69.3 21.4-119 70.2-4.2 4.2-8.6 8.5-13 13.1-3.1 3.2-6.3 6.5-9.5 9.9-1 1.1-2.1 2.1-3.1 3.2-64.9 67.9-133.4 108.5-186 132.1 26.9 4.8 54.7 7.3 83 7.3 80.9 0 157.1-20.3 223.7-56.1 6.2-3.3 12.3-6.8 18.3-10.4 6-3.6 11.9-7.3 17.7-11.1 36.3-23.9 69.1-52.6 97.5-85.3-40.3-43.5-74-72.4-109.6-72.9"/></g></svg>