<?xml version="1.0" encoding="utf-8"?>
<!-- Generator: Adobe Illustrator 18.1.0, SVG Export Plug-In . SVG Version: 6.00 Build 0)  -->
<svg version="1.1" id="Ebene_1" xmlns="http://www.w3.org/2000/svg" xmlns:xlink="http://www.w3.org/1999/xlink" x="0px" y="0px"
	 viewBox="0 0 884 841.9" enable-background="new 0 0 884 841.9" xml:space="preserve">
<g>
	<path fill="#FFFFFF" d="M481.8,280.8c0,0-9.8-0.8-9.7-7.2c0.1-7.5,15.9-5.6,15.6-32.8s-32-34-32-34v-26.4c0,0,5,0.3,4.8-3.6
		c0.1-3.5-4.3-3.6-4.3-3.6s5.5-3.2,6.3-10.6c0.8-7.2-5.1-15.8-21.6-15.5c-16.5-0.2-22.5,8.3-21.6,15.5c0.9,7.3,6.3,10.6,6.3,10.6
		s-4.4,0.1-4.3,3.6c-0.3,3.8,4.8,3.6,4.8,3.6v26.4c0,0-31.7,6.9-32,34c-0.3,27.1,15.5,25.3,15.6,32.8c0.1,6.4-9.7,7.2-9.7,7.2
		s-7.7,0.3-7.4,8.7c0,9.7,7.4,11.3,7.4,11.3v94.2h40.2h1.5h40.2v-94.2c0,0,7.4-1.5,7.4-11.3C489.5,281,481.8,280.8,481.8,280.8z"/>
	<g>
		<g>
			<path fill="#FFFFFF" d="M440.9,159c-0.8,0-1.5-0.7-1.5-1.5v-37.2c0-0.8,0.7-1.5,1.5-1.5c0.8,0,1.5,0.7,1.5,1.5v37.2
				C442.5,158.3,441.8,159,440.9,159z"/>
		</g>
		<g>
			<path fill="#FFFFFF" d="M445.2,129.2h-8.5c-0.8,0-1.5-0.7-1.5-1.5s0.7-1.5,1.5-1.5h8.5c0.8,0,1.5,0.7,1.5,1.5
				S446,129.2,445.2,129.2z"/>
		</g>
	</g>
	<g>
		<path fill="#FFFFFF" d="M863.9,479.7l-15.5-6.7l-15.2-23.9l4.9,0c1,0,1.7-1.3,1.7-1.9c0.1-2-2.4-2.4-2.4-2.4l-9.6-4.1l-0.1-0.2
			l-105.5-45.9H443.5h-5.1H159.5L51.1,441.9L51,442l-6.7,2.9c0,0-2.5,0.5-2.4,2.4c0,0.6,0.7,1.9,1.7,1.9l2.8,0l-15.9,25.1l-12.6,5.4
			c0,0-4.1,0.8-3.9,4c0,1,1.2,3.2,2.9,3.1l4.1,0v97h416.7h6.5h417.7v-97l3.1,0c1.7,0.1,2.9-2.2,2.9-3.1
			C868,480.4,863.9,479.7,863.9,479.7z M86.7,552.9H67.2v-20c0,0-0.1-9.8,9.5-9.5s9.9,8.7,9.9,8.7V552.9z M86.7,482.3H67.2v-20
			c0,0-0.1-9.8,9.5-9.5s9.9,8.7,9.9,8.7V482.3z M129,573.4h-19.5v-40.5c0,0-0.1-9.8,9.5-9.5c9.7,0.3,9.9,8.7,9.9,8.7V573.4z
			 M129,482.3h-19.5v-20c0,0-0.1-9.8,9.5-9.5c9.7,0.3,9.9,8.7,9.9,8.7V482.3z M171.2,552.9h-19.5v-20c0,0-0.1-9.8,9.5-9.5
			s9.9,8.7,9.9,8.7V552.9z M171.2,482.3h-19.5v-20c0,0-0.1-9.8,9.5-9.5s9.9,8.7,9.9,8.7V482.3z M227.4,552.9H208v-20
			c0,0-0.1-9.8,9.5-9.5c9.7,0.3,9.9,8.7,9.9,8.7V552.9z M227.4,482.3H208v-20c0,0-0.1-9.8,9.5-9.5c9.7,0.3,9.9,8.7,9.9,8.7V482.3z
			 M267.7,552.9h-19.5v-20c0,0-0.1-9.8,9.5-9.5c9.7,0.3,9.9,8.7,9.9,8.7V552.9z M267.7,482.3h-19.5v-20c0,0-0.1-9.8,9.5-9.5
			c9.7,0.3,9.9,8.7,9.9,8.7V482.3z M323.4,552.9h-19.5v-20c0,0-0.1-9.8,9.5-9.5c9.7,0.3,9.9,8.7,9.9,8.7V552.9z M323.4,482.3h-19.5
			v-20c0,0-0.1-9.8,9.5-9.5c9.7,0.3,9.9,8.7,9.9,8.7V482.3z M365.1,552.9h-19.5v-20c0,0-0.1-9.8,9.5-9.5c9.7,0.3,9.9,8.7,9.9,8.7
			V552.9z M365.1,482.3h-19.5v-20c0,0-0.1-9.8,9.5-9.5c9.7,0.3,9.9,8.7,9.9,8.7V482.3z M406.7,552.9h-19.5v-20c0,0-0.1-9.8,9.5-9.5
			c9.7,0.3,9.9,8.7,9.9,8.7V552.9z M406.7,482.3h-19.5v-20c0,0-0.1-9.8,9.5-9.5c9.7,0.3,9.9,8.7,9.9,8.7V482.3z M448.4,573.4h-19.5
			v-40.5c0,0-0.1-9.8,9.5-9.5c9.7,0.3,9.9,8.7,9.9,8.7V573.4z M448.4,482.3h-19.5v-20c0,0-0.1-9.8,9.5-9.5c9.7,0.3,9.9,8.7,9.9,8.7
			V482.3z M490,552.9h-19.5v-20c0,0-0.1-9.8,9.5-9.5c9.7,0.3,9.9,8.7,9.9,8.7V552.9z M490,482.3h-19.5v-20c0,0-0.1-9.8,9.5-9.5
			c9.7,0.3,9.9,8.7,9.9,8.7V482.3z M531.7,552.9h-19.5v-20c0,0-0.1-9.8,9.5-9.5c9.7,0.3,9.9,8.7,9.9,8.7V552.9z M531.7,482.3h-19.5
			v-20c0,0-0.1-9.8,9.5-9.5c9.7,0.3,9.9,8.7,9.9,8.7V482.3z M573.3,552.9h-19.5v-20c0,0-0.1-9.8,9.5-9.5c9.7,0.3,9.9,8.7,9.9,8.7
			V552.9z M573.3,482.3h-19.5v-20c0,0-0.1-9.8,9.5-9.5c9.7,0.3,9.9,8.7,9.9,8.7V482.3z M628.3,552.9h-19.5v-20c0,0-0.1-9.8,9.5-9.5
			c9.7,0.3,9.9,8.7,9.9,8.7V552.9z M628.3,482.3h-19.5v-20c0,0-0.1-9.8,9.5-9.5c9.7,0.3,9.9,8.7,9.9,8.7V482.3z M671.6,552.9h-19.5
			v-20c0,0-0.1-9.8,9.5-9.5c9.7,0.3,9.9,8.7,9.9,8.7V552.9z M671.6,482.3h-19.5v-20c0,0-0.1-9.8,9.5-9.5c9.7,0.3,9.9,8.7,9.9,8.7
			V482.3z M729.6,552.9h-19.5v-20c0,0-0.1-9.8,9.5-9.5c9.7,0.3,9.9,8.7,9.9,8.7V552.9z M729.6,482.3h-19.5v-20c0,0-0.1-9.8,9.5-9.5
			c9.7,0.3,9.9,8.7,9.9,8.7V482.3z M772.1,573.4h-19.5v-40.5c0,0-0.1-9.8,9.5-9.5c9.7,0.3,9.9,8.7,9.9,8.7V573.4z M772.1,482.3
			h-19.5v-20c0,0-0.1-9.8,9.5-9.5c9.7,0.3,9.9,8.7,9.9,8.7V482.3z M814.6,552.9h-19.5v-20c0,0-0.1-9.8,9.5-9.5
			c9.7,0.3,9.9,8.7,9.9,8.7V552.9z M814.6,482.3h-19.5v-20c0,0-0.1-9.8,9.5-9.5c9.7,0.3,9.9,8.7,9.9,8.7V482.3z"/>
	</g>
</g>
</svg>
