<svg xmlns="http://www.w3.org/2000/svg" viewBox="0 0 884 841.9" enable-background="new 0 0 884 841.9"><g fill="#fff"><path d="m651 237.9c-85.3-36.1-140.6 166.8-144.7 182.5h-41.4c2.6-78.3 68.2-184.7 74.9-250.8 6.8-66.5-95.5-141.2-95.5-141.2l-.1.1v-.1c0 0-102.4 75.1-95.5 141.6 6.8 65.9 72.1 172.1 74.9 250.3h-42.8c-4.1-15.7-59.4-218.6-144.7-182.5-66.8 31.8-20.4 156.9-16.8 167.2.1.4.2.6.2.7 0 0 29.5-37.8 72.7-36.3 42 1.5 58.6 50.8 58.6 50.8l.4.2h-2.3c-19.6 0-35.6 16-35.6 35.6 0 19.6 16 35.6 35.6 35.6h197c19.6 0 35.6-16 35.6-35.6 0-19.6-16-35.6-35.6-35.6h-10.3c4.3-10.4 22.9-49.7 59.3-51 43.2-1.5 72.7 36.3 72.7 36.3 0 0 .1-.3.2-.7 3.5-10.2 50-135.3-16.8-167.1"/><path d="m591.3 639.7c-47.6 3-59.8-34-62.8-49.1h17.4c19.6 0 35.6-16 35.6-35.6 0-19.6-16-35.6-35.6-35.6h-197c-19.6 0-35.6 16-35.6 35.6 0 19.6 16 35.6 35.6 35.6h21.1c-3 15.1-15.2 52.1-62.8 49.1-32.8-2.1-41.4-32-41.4-32s-27.8 81.3 40 85.4c82.6 5.1 95.6-60.8 93.5-102.5h29.9c1.1 28.2-3.5 97.3-67.6 145.1 0 0-24.3 13.4 32.6 52.8l26.9 17.6c0 0 15.5 11.2 28.8 9.9 14.1.5 26.9-8.6 26.9-8.6l27.1-18.9c56.9-39.3 32.6-52.8 32.6-52.8-64.1-47.9-68.7-116.9-67.6-145.1h30.3c-2.1 41.8 10.9 107.6 93.5 102.5 67.7-4.2 39.9-85.4 39.9-85.4s-8.6 29.9-41.3 32"/></g></svg>